<?xml version="1.0" standalone="yes"?><svg xmlns="http://www.w3.org/2000/svg" version="1.1" width="231" height="231" viewBox="0 0 231 231" shape-rendering="crispEdges"><rect x="0" y="0" width="231" height="231" fill="#ffffff"/><path fill="#000000" d="M28 28h7v7H28V28M35 28h7v7H35V28M42 28h7v7H42V28M49 28h7v7H49V28M56 28h7v7H56V28M63 28h7v7H63V28M70 28h7v7H70V28M91 28h7v7H91V28M112 28h7v7H112V28M119 28h7v7H119V28M154 28h7v7H154V28M161 28h7v7H161V28M168 28h7v7H168V28M175 28h7v7H175V28M182 28h7v7H182V28M189 28h7v7H189V28M196 28h7v7H196V28M28 35h7v7H28V35M70 35h7v7H70V35M84 35h7v7H84V35M98 35h7v7H98V35M112 35h7v7H112V35M119 35h7v7H119V35M154 35h7v7H154V35M196 35h7v7H196V35M28 42h7v7H28V42M42 42h7v7H42V42M49 42h7v7H49V42M56 42h7v7H56V42M70 42h7v7H70V42M84 42h7v7H84V42M98 42h7v7H98V42M105 42h7v7H105V42M126 42h7v7H126V42M133 42h7v7H133V42M140 42h7v7H140V42M154 42h7v7H154V42M168 42h7v7H168V42M175 42h7v7H175V42M182 42h7v7H182V42M196 42h7v7H196V42M28 49h7v7H28V49M42 49h7v7H42V49M49 49h7v7H49V49M56 49h7v7H56V49M70 49h7v7H70V49M84 49h7v7H84V49M98 49h7v7H98V49M112 49h7v7H112V49M119 49h7v7H119V49M140 49h7v7H140V49M154 49h7v7H154V49M168 49h7v7H168V49M175 49h7v7H175V49M182 49h7v7H182V49M196 49h7v7H196V49M28 56h7v7H28V56M42 56h7v7H42V56M49 56h7v7H49V56M56 56h7v7H56V56M70 56h7v7H70V56M91 56h7v7H91V56M98 56h7v7H98V56M112 56h7v7H112V56M140 56h7v7H140V56M154 56h7v7H154V56M168 56h7v7H168V56M175 56h7v7H175V56M182 56h7v7H182V56M196 56h7v7H196V56M28 63h7v7H28V63M70 63h7v7H70V63M105 63h7v7H105V63M119 63h7v7H119V63M154 63h7v7H154V63M196 63h7v7H196V63M28 70h7v7H28V70M35 70h7v7H35V70M42 70h7v7H42V70M49 70h7v7H49V70M56 70h7v7H56V70M63 70h7v7H63V70M70 70h7v7H70V70M84 70h7v7H84V70M98 70h7v7H98V70M112 70h7v7H112V70M126 70h7v7H126V70M140 70h7v7H140V70M154 70h7v7H154V70M161 70h7v7H161V70M168 70h7v7H168V70M175 70h7v7H175V70M182 70h7v7H182V70M189 70h7v7H189V70M196 70h7v7H196V70M84 77h7v7H84V77M91 77h7v7H91V77M112 77h7v7H112V77M126 77h7v7H126V77M133 77h7v7H133V77M140 77h7v7H140V77M28 84h7v7H28V84M70 84h7v7H70V84M84 84h7v7H84V84M91 84h7v7H91V84M105 84h7v7H105V84M119 84h7v7H119V84M126 84h7v7H126V84M147 84h7v7H147V84M154 84h7v7H154V84M175 84h7v7H175V84M182 84h7v7H182V84M189 84h7v7H189V84M28 91h7v7H28V91M35 91h7v7H35V91M42 91h7v7H42V91M56 91h7v7H56V91M63 91h7v7H63V91M84 91h7v7H84V91M112 91h7v7H112V91M126 91h7v7H126V91M133 91h7v7H133V91M161 91h7v7H161V91M168 91h7v7H168V91M175 91h7v7H175V91M182 91h7v7H182V91M189 91h7v7H189V91M49 98h7v7H49V98M56 98h7v7H56V98M70 98h7v7H70V98M77 98h7v7H77V98M98 98h7v7H98V98M112 98h7v7H112V98M133 98h7v7H133V98M140 98h7v7H140V98M147 98h7v7H147V98M161 98h7v7H161V98M168 98h7v7H168V98M175 98h7v7H175V98M189 98h7v7H189V98M196 98h7v7H196V98M28 105h7v7H28V105M91 105h7v7H91V105M105 105h7v7H105V105M126 105h7v7H126V105M175 105h7v7H175V105M196 105h7v7H196V105M28 112h7v7H28V112M35 112h7v7H35V112M63 112h7v7H63V112M70 112h7v7H70V112M91 112h7v7H91V112M105 112h7v7H105V112M112 112h7v7H112V112M133 112h7v7H133V112M140 112h7v7H140V112M154 112h7v7H154V112M161 112h7v7H161V112M196 112h7v7H196V112M28 119h7v7H28V119M35 119h7v7H35V119M77 119h7v7H77V119M84 119h7v7H84V119M91 119h7v7H91V119M112 119h7v7H112V119M126 119h7v7H126V119M133 119h7v7H133V119M140 119h7v7H140V119M161 119h7v7H161V119M189 119h7v7H189V119M28 126h7v7H28V126M56 126h7v7H56V126M70 126h7v7H70V126M77 126h7v7H77V126M91 126h7v7H91V126M98 126h7v7H98V126M133 126h7v7H133V126M154 126h7v7H154V126M161 126h7v7H161V126M168 126h7v7H168V126M175 126h7v7H175V126M189 126h7v7H189V126M196 126h7v7H196V126M28 133h7v7H28V133M56 133h7v7H56V133M84 133h7v7H84V133M91 133h7v7H91V133M105 133h7v7H105V133M126 133h7v7H126V133M147 133h7v7H147V133M161 133h7v7H161V133M175 133h7v7H175V133M182 133h7v7H182V133M196 133h7v7H196V133M28 140h7v7H28V140M42 140h7v7H42V140M56 140h7v7H56V140M63 140h7v7H63V140M70 140h7v7H70V140M84 140h7v7H84V140M91 140h7v7H91V140M105 140h7v7H105V140M112 140h7v7H112V140M119 140h7v7H119V140M126 140h7v7H126V140M140 140h7v7H140V140M147 140h7v7H147V140M154 140h7v7H154V140M161 140h7v7H161V140M168 140h7v7H168V140M182 140h7v7H182V140M84 147h7v7H84V147M98 147h7v7H98V147M105 147h7v7H105V147M140 147h7v7H140V147M168 147h7v7H168V147M28 154h7v7H28V154M35 154h7v7H35V154M42 154h7v7H42V154M49 154h7v7H49V154M56 154h7v7H56V154M63 154h7v7H63V154M70 154h7v7H70V154M91 154h7v7H91V154M98 154h7v7H98V154M105 154h7v7H105V154M119 154h7v7H119V154M140 154h7v7H140V154M154 154h7v7H154V154M168 154h7v7H168V154M196 154h7v7H196V154M28 161h7v7H28V161M70 161h7v7H70V161M98 161h7v7H98V161M112 161h7v7H112V161M126 161h7v7H126V161M133 161h7v7H133V161M140 161h7v7H140V161M168 161h7v7H168V161M28 168h7v7H28V168M42 168h7v7H42V168M49 168h7v7H49V168M56 168h7v7H56V168M70 168h7v7H70V168M91 168h7v7H91V168M98 168h7v7H98V168M105 168h7v7H105V168M112 168h7v7H112V168M119 168h7v7H119V168M133 168h7v7H133V168M140 168h7v7H140V168M147 168h7v7H147V168M154 168h7v7H154V168M161 168h7v7H161V168M168 168h7v7H168V168M182 168h7v7H182V168M28 175h7v7H28V175M42 175h7v7H42V175M49 175h7v7H49V175M56 175h7v7H56V175M70 175h7v7H70V175M91 175h7v7H91V175M105 175h7v7H105V175M147 175h7v7H147V175M154 175h7v7H154V175M189 175h7v7H189V175M196 175h7v7H196V175M28 182h7v7H28V182M42 182h7v7H42V182M49 182h7v7H49V182M56 182h7v7H56V182M70 182h7v7H70V182M98 182h7v7H98V182M112 182h7v7H112V182M119 182h7v7H119V182M140 182h7v7H140V182M175 182h7v7H175V182M182 182h7v7H182V182M196 182h7v7H196V182M28 189h7v7H28V189M70 189h7v7H70V189M91 189h7v7H91V189M98 189h7v7H98V189M105 189h7v7H105V189M140 189h7v7H140V189M147 189h7v7H147V189M154 189h7v7H154V189M161 189h7v7H161V189M168 189h7v7H168V189M196 189h7v7H196V189M28 196h7v7H28V196M35 196h7v7H35V196M42 196h7v7H42V196M49 196h7v7H49V196M56 196h7v7H56V196M63 196h7v7H63V196M70 196h7v7H70V196M84 196h7v7H84V196M91 196h7v7H91V196M98 196h7v7H98V196M112 196h7v7H112V196M126 196h7v7H126V196M133 196h7v7H133V196M140 196h7v7H140V196M147 196h7v7H147V196M175 196h7v7H175V196M196 196h7v7H196V196"/></svg>